<svg xmlns="http://www.w3.org/2000/svg" shape-rendering="geometricPrecision" text-rendering="geometricPrecision" image-rendering="optimizeQuality" fill-rule="evenodd" clip-rule="evenodd" viewBox="0 0 500 512.36"><path fill="#fff" fill-rule="nonzero" d="M453.13 512.36H46.87C21.13 512.36 0 491.21 0 465.49V94.03c0-25.74 21.12-46.86 46.87-46.86h79.21V18.55C126.08 8.32 136.2 0 148.7 0c12.52 0 22.64 8.32 22.64 18.55v28.62h157.33V18.55C328.67 8.32 338.79 0 351.3 0s22.64 8.32 22.64 18.55v28.62h79.19c25.74 0 46.87 21.12 46.87 46.87v371.45c0 25.77-21.11 46.87-46.87 46.87zM348.49 226.58h67.15c4.71 0 8.55 3.89 8.55 8.55V291c0 4.68-3.87 8.55-8.55 8.55h-67.15c-4.68 0-8.56-3.84-8.56-8.55v-55.87c0-4.7 3.86-8.55 8.56-8.55zm-131.37 0h67.15c4.71 0 8.56 3.89 8.56 8.55V291c0 4.68-3.89 8.55-8.56 8.55h-67.15c-4.67 0-8.55-3.84-8.55-8.55v-55.87c0-4.7 3.85-8.55 8.55-8.55zm-132.76 0h67.15c4.71 0 8.56 3.89 8.56 8.55V291c0 4.68-3.88 8.55-8.56 8.55H84.36c-4.68 0-8.55-3.84-8.55-8.55v-55.87c0-4.7 3.85-8.55 8.55-8.55zm264.13 128.94h67.15c4.71 0 8.55 3.87 8.55 8.54v55.87c0 4.69-3.86 8.55-8.55 8.55h-67.15c-4.69 0-8.56-3.84-8.56-8.55v-55.87c0-4.7 3.86-8.54 8.56-8.54zm-131.37 0h67.15c4.71 0 8.56 3.87 8.56 8.54v55.87c0 4.69-3.87 8.55-8.56 8.55h-67.15c-4.68 0-8.55-3.84-8.55-8.55v-55.87c0-4.7 3.85-8.54 8.55-8.54zm-132.76 0h67.15c4.71 0 8.56 3.87 8.56 8.54v55.87c0 4.69-3.87 8.55-8.56 8.55H84.36c-4.69 0-8.55-3.84-8.55-8.55v-55.87c0-4.7 3.85-8.54 8.55-8.54zM15.01 172.73v287.76c0 20.24 16.58 36.86 36.86 36.86h396.25c20.29 0 36.87-16.62 36.87-36.87V172.73H15.01z"/></svg>
